<?xml version="1.0" encoding="UTF-8" standalone="no"?>
<!-- Created with Inkscape (http://www.inkscape.org/) -->
<svg id="svg2" xmlns:rdf="http://www.w3.org/1999/02/22-rdf-syntax-ns#" xmlns="http://www.w3.org/2000/svg" height="300" width="230" version="1.1" xmlns:cc="http://creativecommons.org/ns#" xmlns:dc="http://purl.org/dc/elements/1.1/">
 <metadata id="metadata7">
  <rdf:RDF>
   <cc:Work rdf:about="">
    <dc:format>image/svg+xml</dc:format>
    <dc:type rdf:resource="http://purl.org/dc/dcmitype/StillImage"/>
    <dc:title/>
   </cc:Work>
  </rdf:RDF>
 </metadata>
 <path id="path338" d="m17.422 119.2 9.358 60.238c0.178 1.0285 0.32895 1.8709 0.49579 2.7888h175.45c0.16684-0.91795 0.31779-1.7604 0.49579-2.7888l9.358-60.238h-195.16z" stroke="#000" stroke-width=".99158" fill="#fff"/>
 <rect id="rect352" ry="7.9326" height="58.898" width="158.75" stroke="#b7985e" y="183.76" x="35.623" stroke-width="3" fill="#0039a6"/>
 <path id="path340" d="m115 24.348c-60.062 0-108.92 22.001-108.92 22.001l20.701 133.09c2.6126 15.095 3.6402 17.768 14.316 23.24l73.903 37.89 73.9-37.9c10.676-5.4721 11.703-8.1454 14.316-23.24l20.7-133.08c5e-13 0-48.857-22.001-108.92-22.001z" stroke="#b7985e" stroke-width="3" fill="none"/>
 <path id="path348" d="m115 24.348c-60.062 0-108.92 22.001-108.92 22.001l11.341 72.851h195.16l11.34-72.851c5e-13 0-48.857-22.001-108.92-22.001z" stroke="#b7985e" stroke-width="3" fill="#dc281e"/>
 <path id="path342" stroke-linejoin="round" d="m53.491 27.695-27.392 5.671-6.476 41.708 3.842 4.214c10.007-0.647 20.001-1.379 30.026-1.673v-49.92zm123.02 0v49.92c10.03 0.294 20.02 1.026 30.03 1.673l3.84-4.214-6.48-41.708-27.39-5.67z" stroke="#b7985e" stroke-width="3" fill="#0039a6"/>
 <path id="path344" d="m41.127 34.512c-21.527 5.767-35.046 11.837-35.046 11.837l6.879 44.311c7.8759-3.0198 21.214-7.836 39.508-12.147 3.3986-0.80086-2.1804-5.4259-8.8622-4.803-6.1073 0.56945-14.856 2.5618-15.648-1.3324-0.67583-3.3233-2.1384-13.781 1.9212-18.809l14.812-15.741-3.564-3.316zm147.75 0-3.5635 3.3156 14.812 15.741c4.06 5.028 2.59 15.486 1.92 18.809-0.8 3.894-9.54 1.901-15.65 1.332-6.68-0.623-12.26 4.002-8.86 4.803 18.29 4.311 31.63 9.127 39.5 12.147l6.87-44.311c3e-13 0-13.518-6.0702-35.046-11.837z" stroke="#b7985e" stroke-width="3" fill="#0039a6"/>
 <path id="path346" d="m115 6.5c-42.129 0-78.662 10.796-96.772 17.26l9.668 48.277c-0.123-3.531 7.886-6.679 14.099-8.738 24.225-8.028 51.069-13.139 73.005-13.139s48.78 5.111 73.005 13.138c6.2126 2.0587 14.222 5.2069 14.099 8.7383l9.67-48.276c-18.11-6.464-54.64-17.26-96.77-17.26z" stroke="#b7985e" stroke-width="3" fill="#0039a6"/>
 <path id="path356" d="m115 209.71-43.14 18.59-6.848 16.22 49.988 48.98l49.353-48.36 3.2528-16.844z" stroke="#b7985e" stroke-width="3" fill="#009a3d"/>
 <path id="path350" stroke-linejoin="round" d="m27.276 182.23c2.2819 12.555 3.8718 15.352 13.82 20.451l73.904 37.89 73.9-37.9c9.9483-5.0993 11.538-7.8965 13.82-20.451z" stroke="#b7985e" stroke-linecap="round" stroke-width="3" fill="#009a3d"/>
 <rect id="rect354" ry="5.5856" height="41.471" width="137.13" stroke="#b7985e" y="216.31" x="46.436" stroke-width="3" fill="#b7985e"/>
 <path id="path37" fill="#0039a6" d="m93.812 222.56c-2.7549 0-4.9762 1.3646-6.6562 4.125-1.6801 2.7467-2.5 6.1574-2.5 10.25 0 4.1201 0.76802 7.6046 2.3438 10.406 1.586 2.8 3.817 4.19 6.656 4.19 2.7654 0 4.9554-1.3357 6.625-4 1.6801-2.678 2.5312-6.1915 2.5312-10.531 0-4.1338-0.82003-7.5658-2.4375-10.312-1.607-2.7604-3.7867-4.125-6.5625-4.125zm44.718 0c-2.7027 0-4.8306 1.3395-6.375 4.0312-1.5444 2.678-2.3125 6.1526-2.3125 10.438 0 2.6643 0.34258 5.1014 1 7.3125s1.5708 3.959 2.7812 5.25c1.2209 1.291 2.8298 1.9375 4.7812 1.9375 2.3166 0 4.1745-0.90592 5.5938-2.7188 1.4296-1.8266 2.2704-4.1534 2.5-6.9688l-3.5938-0.5c-0.10435 1.6206-0.55067 3.0201-1.3438 4.1875-0.79308 1.1674-1.748 1.75-2.875 1.75-1.41 0-2.55-0.86-3.41-2.59-0.8557-1.7442-1.2812-4.3441-1.2812-7.75 0-3.351 0.39442-5.8984 1.1875-7.6562 0.80352-1.7716 1.9349-2.6562 3.375-2.6562 2.2436 0 3.6863 2.1313 4.3438 6.375l3.59-0.5c-0.36524-3.1999-1.2787-5.6583-2.6875-7.375s-3.1629-2.5625-5.2812-2.5625zm-72 0.40625v28.125h3.875v-11.125h5.3438c2.0036 0 3.6331-0.81316 4.9375-2.4062 1.3044-1.5931 1.9688-3.6818 1.9688-6.25 0-2.2523-0.602-4.1957-1.8125-5.8438-1.2001-1.6618-3.0685-2.5-5.5625-2.5h-8.75zm39.906 0v28.125h13.156v-4.5938h-9.125v-23.531h-4.0312zm15.969 0v28.125h3.8438v-28.125h-3.8438zm27.156 0v28.125h13.906v-4.3438h-10.062v-7.875h7.9688v-4.0938h-7.9688v-7.625h9.9062v-4.1875h-13.75zm-55.82 3.65c1.6696 0 2.8944 0.90971 3.6875 2.75 0.79308 1.8266 1.1875 4.3664 1.1875 7.5938 3e-14 3.969-0.47745 6.7081-1.4375 8.2188s-2.1121 2.2812-3.5 2.2812c-1.5653 0-2.7797-0.88084-3.625-2.625-0.83482-1.7579-1.25-4.3266-1.25-7.7188 3e-14 -6.9904 1.6399-10.5 4.9375-10.5zm-23.344 0.5625h4.1875c1.5131 0 2.5823 0.42599 3.1562 1.25 0.58438 0.82401 0.875 1.7839 0.875 2.9375 0 1.2772-0.31138 2.3247-0.9375 3.0938-0.62612 0.76908-1.5604 1.1562-2.75 1.1562h-4.5312v-8.4375z"/>
 <path id="path1187" fill="#b7985e" d="m112.75 9.5275c-1.1 1.7165-2.18 3.4395-3.25 5.1685 1.0902-0.025132 2.1809-0.043823 3.272-0.056016 0.93406-1.0243 1.879-2.0441 2.8351-3.059 0.6508-0.68963 1.3064-1.3769 1.9668-2.0618-0.65544-0.0053243-1.311-0.008355-1.9668-0.00908-0.95426 0.0010549-1.9082 0.0069924-2.8617 0.017775zm6.3741 0.0081104c-1.1514 1.6884-2.2824 3.3842-3.3926 5.0871 1.0917 0.0013723 2.1831 0.0092932 3.274 0.023703 1.6091-1.6829 3.2473-3.3512 4.9137-5.0047-1.5972-0.048836-3.1957-0.084235-4.7952-0.10602zm59.46 6.9124c-1.4552 1.4292-2.8946 2.8678-4.3178 4.3156 1.0701 0.22044 2.1389 0.44644 3.2064 0.67795 1.894-1.3341 3.8098-2.6516 5.7467-3.9521-1.542-0.3584-3.0871-0.70559-4.6353-1.0414zm-63.216 0.40623c-2.8496 0.004611-4.993 1.3001-6.3706 3.8655-1.3668 2.5651-1.925 6.3288-1.7621 11.269 0.16248 4.9275 0.9495 8.6543 2.3229 11.151 1.3833 2.4967 3.3093 3.708 5.8382 3.7088 0.074747 0.000023498 0.14895-0.0010004 0.22261-0.003074 2.4281-0.074566 4.2798-1.2904 5.6082-3.7164 1.3786-2.4994 2.1732-6.2271 2.3271-11.155 0.1543-4.9408-0.42536-8.704-1.8079-11.267-1.3313-2.4872-3.3912-3.7772-6.1274-3.8505-0.083011-0.0021107-0.16663-0.0030983-0.25086-0.002962zm40.418 2.9384c-2.4607-0.35441-4.4983 0.12312-6.0856 1.4353s-2.5135 3.2991-2.8173 5.9018c-0.23651 2.0257-0.016927 3.6723 0.65727 4.9763 0.67575 1.2913 2.0973 2.6454 4.2293 4.0488 0.68878 0.44999 1.3744 0.90258 2.057 1.3577 0.71994 0.48411 1.2443 1.0863 1.5496 1.7993 0.30721 0.70028 0.39283 1.4744 0.26001 2.3293-0.17643 1.1356-0.62706 1.9771-1.3207 2.5244-0.69175 0.53456-1.5617 0.73526-2.6428 0.58068-1.0712-0.15317-2.122-0.57597-3.1591-1.2451-1.0272-0.66784-2.0778-1.6077-3.1387-2.824l-0.68417 5.8462c0.94519 0.78692 1.9498 1.426 2.9917 1.8998 1.0501 0.48795 2.1035 0.81146 3.1855 0.96576 2.6317 0.37532 4.7002-0.004367 6.2371-1.2034 1.5488-1.2101 2.59-3.235 3.0849-6.1114 0.36351-2.1127 0.24054-3.9408-0.39636-5.4747s-1.8262-2.8955-3.5643-4.0227c-0.60865-0.40631-1.2197-0.81066-1.8333-1.213-1.2835-0.82592-2.1258-1.5002-2.497-2.0716-0.35897-0.58278-0.49443-1.2908-0.38878-2.0842 0.13633-1.0237 0.5532-1.7736 1.2353-2.2409 0.68209-0.46733 1.5847-0.6269 2.7259-0.46091 1.0239 0.14892 2.0437 0.53517 3.0148 1.1445 0.97113 0.60934 1.8715 1.4302 2.7294 2.4509l0.92076-5.5022c-0.98593-0.76696-2.0023-1.3784-3.0691-1.845-1.0648-0.47936-2.1646-0.80084-3.2811-0.96165zm41.421 8.9103c-3.1572-0.90263-5.9528-0.32813-8.272 1.7236-2.3088 2.0545-4.0225 5.463-5.2137 10.185-1.17 4.647-1.28 8.43-0.4 11.355 0.88106 2.9127 2.6784 4.7446 5.4477 5.5305 1.1173 0.31703 2.2288 0.39484 3.3382 0.22412 1.1227-0.18028 2.2124-0.58859 3.3034-1.2412l3.8826-12.681c-2.2949-0.7022-4.5979-1.3791-6.9084-2.03l-1.3033 4.6246c0.9991 0.28126 1.9969 0.56746 2.9932 0.85852l-1.549 5.295c-0.26561 0.15119-0.57719 0.25956-0.93944 0.27588-0.35865 0.0039141-0.75239-0.087772-1.199-0.21495-1.4855-0.42301-2.4026-1.5378-2.7458-3.3718-0.34316-1.8341-0.10663-4.3083 0.72802-7.4146 0.86147-3.2061 1.9246-5.4708 3.2072-6.8076 1.286-1.3492 2.8086-1.7684 4.5431-1.271 0.99114 0.28424 1.8305 0.78531 2.502 1.5364 0.7 0.743 1.2 1.703 1.53 2.883l1.8353-6.0494c-0.61-0.833-1.33-1.551-2.15-2.129-0.81364-0.59039-1.6809-1.0094-2.6249-1.2793zm-169.17 2.326 8.4638 27.644c1.4088-0.42939 2.8203-0.84888 4.2343-1.2583l-3.177-10.983c0.45987-0.13343 0.92004-0.26582 1.3805-0.39717 1.0618-0.3029 2.2817 0.50202 3.6396 2.3923 0.2241 0.31343 0.41911 0.53851 0.55238 0.71627 1.5255 2.1105 3.0311 4.2309 4.5164 6.3608 1.5601-0.41265 3.1229-0.81274 4.6882-1.2-2.13-3.048-4.312-6.076-6.537-9.082-0.77535-1.0522-1.3786-1.7103-1.8155-2.0218-0.4302-0.32662-0.89996-0.5058-1.3717-0.49871 1.353-0.607 2.261-1.567 2.726-2.902 0.465-1.334 0.463-2.962-0.028-4.89-0.734-2.879-1.895-4.783-3.549-5.712-1.643-0.932-4.019-0.993-7.036-0.136-2.23 0.633-4.452 1.29-6.666 1.969zm19.993-5.448 6.713 28.138c4.487-1.0705 8.9933-2.0348 13.513-2.8865l-0.92739-4.9354c-3.1442 0.59202-6.2811 1.2374-9.4088 1.9343l-1.6508-7.4146c2.9098-0.64804 5.8285-1.2527 8.7546-1.8125l-0.94294-4.9325c-2.9764 0.56904-5.9446 1.1837-8.9032 1.8424l-1.3611-6.1132c3.3296-0.74109 6.6722-1.4275 10.026-2.0571l-0.92739-4.9354c-4.9896 0.93613-9.9531 1.9956-14.885 3.1722zm18.968-3.908l4.955 28.491c1.2701-0.22166 2.5411-0.43433 3.8129-0.63788l-3.307-20.75c3.297 6.567 6.44 13.183 9.423 19.843 1.54-0.21 3.081-0.407 4.623-0.589l-3.385-28.704c-1.4166 0.16667-2.8318 0.3437-4.2454 0.53097l2.765 20.824c-3.015-6.663-6.19-13.281-9.517-19.85-1.7106 0.26671-3.4185 0.54818-5.1236 0.84419zm20.323-2.8122 2.9649 28.748c1.5427-0.1598 3.086-0.3055 4.6297-0.43685 3.5848-0.30505 6.0767-1.5672 7.5545-3.9081 1.4771-2.3538 2.1435-6.1074 1.918-11.226-0.22-5.105-1.24-8.739-3.11-10.887-1.864-2.162-4.818-3.112-8.811-2.774-1.719 0.146-3.436 0.307-5.152 0.484zm40.386-1.203-1.29 28.869c1.45 0.064445 2.9002 0.142 4.3502 0.23247l0.71-11.406c0.47546 0.029667 0.95087 0.060646 1.4262 0.092931 1.0962 0.074449 1.9659 1.245 2.5933 3.4823 0.10306 0.37061 0.2088 0.64834 0.27294 0.86064 0.70841 2.5012 1.3913 5.0053 2.0489 7.5118 1.5904 0.14463 3.1804 0.30442 4.7697 0.47909-0.9458-3.5943-1.9451-7.1838-2.999-10.767-0.36568-1.2529-0.70579-2.0768-1.0086-2.5184-0.29135-0.45357-0.67027-0.78216-1.1146-0.93636 1.4749-0.10822 2.6534-0.69907 3.5464-1.7922 0.89306-1.0932 1.4501-2.6211 1.6509-4.5985 0.29994-2.9533-0.13716-5.1382-1.377-6.5772-1.229-1.438-3.4499-2.3101-6.5965-2.5304-2.325-0.16279-4.6529-0.29679-6.9831-0.40141zm40.7 4.761-5.3459 28.423c4.5199 0.85252 9.026 1.8175 13.513 2.8888l1.1664-4.8856c-3.1187-0.74458-6.2474-1.4387-9.3843-2.0803l1.52-7.4418c2.9197 0.59669 5.8314 1.2376 8.7337 1.9213l1.1516-4.8891c-2.9504-0.69496-5.9109-1.3464-8.8803-1.9529l1.2532-6.1357c3.3429 0.68236 6.6737 1.4205 9.9908 2.2124l1.1664-4.8856c-4.92-1.176-9.89-2.237-14.88-3.174zm-53.01-0.42c0.083518-0.0001101 0.16553 0.0033332 0.24602 0.010338 5.9272e-8 5.2038e-9 1.1854e-7 1.0408e-8 1.7782e-7 1.5611e-8 1.105 0.097009 1.9205 0.86448 2.4251 2.3253 0.54147 1.5544 0.77039 4.0648 0.72703 7.537-0.043201 3.4593-0.32961 5.9935-0.86795 7.5509-0.50167 1.4396-1.2626 2.1783-2.2842 2.2736l-1.6441e-7 1.534e-8c-0.07442 0.0068088-0.15024 0.010203-0.22746 0.010207-1.1273 0.000057634-1.9509-0.73613-2.4919-2.2796-0.54112-1.5564-0.85658-4.0896-0.90624-7.5488-0.049839-3.472 0.19989-5.9832 0.73859-7.5384 0.53855-1.5682 1.4217-2.3389 2.641-2.3405zm-81.365 12.259c0.70908-0.2062 1.4189-0.41001 2.1295-0.61142 1.2601-0.35715 2.2456-0.32548 2.9431 0.11288 0.6974 0.43835 1.2448 1.3503 1.6132 2.7092 0.36839 1.3589 0.34093 2.4126-0.032325 3.1578-0.36654 0.72989-1.1588 1.2504-2.3786 1.5957-0.69357 0.19635-1.3865 0.39504-2.0786 0.59605zm98.235-11.549c0.73926 0.046133 1.4783 0.095254 2.217 0.14734 1.31 0.092367 2.2282 0.45814 2.7354 1.1076 0.5072 0.64948 0.71063 1.6926 0.59305 3.0944-0.11759 1.4018-0.5029 2.3818-1.107 2.9545-0.59262 0.5607-1.5129 0.77991-2.775 0.69087-0.71763-0.050628-1.4354-0.098354-2.1534-0.14316zm-39.692 0.81924c0.42837-0.036819 0.85684-0.072649 1.2854-0.10749 1.8643-0.15154 3.2471 0.45525 4.1285 1.8062 0.88146 1.3509 1.4113 3.7031 1.621 7.0648 0.21138 3.3874-0.010224 5.8391-0.66168 7.3053-0.65232 1.4534-1.8395 2.2355-3.5785 2.3773-0.39977 0.03259-0.7995 0.06612-1.1992 0.10059z"/>
 <path id="path1325" stroke-linejoin="round" d="m82.438 103.12 31.25 7.8125v-7.8125h-31.25zm33.875 0v7.8125l31.25-7.8125h-31.25zm-21.125 1.5625h16.938v4.2188l-16.938-4.2188zm22.688 0h16.938l-16.938 4.2188v-4.2188z" stroke="#0039a6" stroke-linecap="round" stroke-width="2" fill="#ffd200"/>
 <path id="path1334" stroke-linejoin="round" d="m64.094 187.97c0 7.3533 8.2125 13.312 18.344 13.312 10.131-1e-13 18.344-5.9592 18.344-13.312h-36.688zm65.125 0c0 7.3533 8.2125 13.312 18.344 13.312 10.131 0 18.344-5.9592 18.344-13.312h-36.688z" stroke="#0039a6" stroke-linecap="round" fill="#b7985e"/>
 <path id="path1339" stroke-linejoin="round" d="m82.432 103.12 18.348 84.85" stroke="#0039a6" stroke-linecap="round" fill="none"/>
 <path id="path1341" stroke-linejoin="round" d="m82.432 187.97 7e-14 -84.852" stroke="#0039a6" stroke-linecap="round" fill="none"/>
 <path id="path1343" stroke-linejoin="round" d="m82.432 103.12-18.344 84.85" stroke="#0039a6" stroke-linecap="round" fill="none"/>
 <path id="path1367" stroke-linejoin="round" d="m147.57 103.12-18.344 84.852" stroke="#0039a6" stroke-linecap="round" fill="none"/>
 <path id="path1369" stroke-linejoin="round" d="m147.57 187.97-9e-14 -84.852" stroke="#0039a6" stroke-linecap="round" fill="none"/>
 <path id="path1371" stroke-linejoin="round" d="m147.57 103.12 18.344 84.852" stroke="#0039a6" stroke-linecap="round" fill="none"/>
 <path id="path1254" stroke-linejoin="round" d="m352.49 58.435a3.0936 3.0936 0 1 1 -6.1872 0 3.0936 3.0936 0 1 1 6.1872 0z" transform="matrix(.99158 0 0 .99158 -231.46 1.4501)" stroke="#0039a6" stroke-linecap="round" stroke-width="1.0085" fill="#b7985e"/>
 <path id="path1258" stroke-linejoin="round" d="m108.21 65.003c2.06 8.259 0.02 21.593-2.17 23.302l8.96 0.279 8.95-0.279c-2.19-1.709-4.23-15.043-2.17-23.302l-6.7861 0.18592-6.7861-0.18592z" stroke="#0039a6" stroke-linecap="round" fill="#b7985e"/>
 <rect id="rect1256" stroke-linejoin="round" rx="1.9832" ry="1.9832" height="2.8046" width="16.915" stroke="#0039a6" stroke-linecap="round" y="63.337" x="105.94" fill="#b7985e"/>
 <path id="path1493" fill="#b7985e" d="m82.438 103.12 31.25 7.8125v-7.8125h-31.25zm33.875 0v7.8125l31.25-7.8125h-31.25zm-21.125 1.5625h16.938v4.2188l-16.938-4.2188zm22.688 0h16.938l-16.938 4.2188v-4.2188z"/>
 <path id="path1277" stroke-linejoin="round" d="m106.2 90.505v104.3l8.8003 9.2031 8.8003-9.2031v-104.3h-8.8003-8.8003z" stroke="#0039a6" stroke-linecap="round" fill="#b7985e"/>
 <path id="path1282" stroke-linejoin="round" d="m115 90.506v113.5" stroke="#0039a6" stroke-linecap="round" fill="#ffd200"/>
 <path id="path1265" stroke-linejoin="round" d="m92.162 84.959 3.47 3.78-4.245 1.767l4.245 1.766-3.47 3.78c7.334-1.053 12.218-1.673 22.838-1.673 10.617 0 15.503 0.62043 22.837 1.6733l-3.4705-3.7804 4.24-1.766-4.24-1.767 3.47-3.78c-7.334 1.0529-12.22 1.6733-22.837 1.6733-10.62 0-15.504-0.62-22.838-1.673z" stroke="#0039a6" stroke-linecap="round" fill="#b7985e"/>
</svg>
